# xmcd
#
# Track frame offsets:
#	150
#	12592
#	26465
#	38575
#	50142
#	62232
#	76525
#	90307
#	101135
#
# Disc length: 1526
#
# Revision: 3
# Processed by: cddbd v1.5.1PL0 Copyright (c) Steve Scherf et al.
# Submitted via: DiscPlay 3.4.1
# Normalized: r1:TSWAP
#
DISCID=6505f409
DTITLE=Various Artist - Cookin' The Blues Vol.1
DYEAR=1900
DGENRE=
TTITLE0=Howlin' Wolf - Spoonful
TTITLE1=Muddy Waters - I Be's Troubled
TTITLE2=Jimmy Witherspoon - Ain't Nobody's Business
TTITLE3=Sonny Boy Williamson - Don't Start Me Talkin'
TTITLE4=Elmore James - The Sun Is Shining
TTITLE5=Lowell Fulson - Reconsider Baby
TTITLE6=Chuck Berry - Wee Wee Hours
TTITLE7=Little Walter - Blue Midnight
TTITLE8=Buddy Guy - My Time After A While
EXTD=
EXTT0=
EXTT1=
EXTT2=
EXTT3=
EXTT4=
EXTT5=
EXTT6=
EXTT7=
EXTT8=
PLAYORDER=
